<svg width="30" height="30" viewBox="0 0 30 30" fill="none" xmlns="http://www.w3.org/2000/svg">
<g clip-path="url(#clip0_3_20)">
<path d="M17.0255 29.9414H12.2118C11.4078 29.9414 10.7538 29.2886 10.7538 28.4862V17.65H7.94538C7.14135 17.65 6.4873 16.997 6.4873 16.1948V11.5514C6.4873 10.749 7.14135 10.0962 7.94538 10.0962H10.7538V7.771C10.7538 5.46547 11.4791 3.50395 12.8512 2.09885C14.2295 0.687332 16.1556 -0.0585938 18.4214 -0.0585938L22.0925 -0.0526429C22.8952 -0.0512695 23.5481 0.601501 23.5481 1.40259V5.71381C23.5481 6.51627 22.8942 7.16904 22.0904 7.16904L19.6187 7.16995C18.8649 7.16995 18.673 7.32079 18.6319 7.36702C18.5643 7.4437 18.4838 7.66045 18.4838 8.25897V10.096H21.9047C22.1622 10.096 22.4117 10.1594 22.6262 10.2789C23.0887 10.5368 23.3763 11.0246 23.3763 11.5517L23.3745 16.195C23.3745 16.997 22.7204 17.6498 21.9164 17.6498H18.4838V28.4862C18.4838 29.2886 17.8295 29.9414 17.0255 29.9414V29.9414ZM12.5159 28.1827H16.7214V16.8626C16.7214 16.3268 17.1582 15.891 17.6949 15.891H21.6123L21.6139 11.8549H17.6946C17.158 11.8549 16.7214 11.4191 16.7214 10.8833V8.25897C16.7214 7.57187 16.7913 6.79047 17.311 6.20316C17.9389 5.49316 18.9284 5.41122 19.6183 5.41122L21.7859 5.41031V1.70563L18.42 1.70013C14.7787 1.70013 12.5159 4.02649 12.5159 7.771V10.8833C12.5159 11.4189 12.0793 11.8549 11.5426 11.8549H8.24947V15.891H11.5426C12.0793 15.891 12.5159 16.3268 12.5159 16.8626V28.1827ZM22.0891 1.70609H22.0893H22.0891Z" fill="white"/>
</g>
<defs>
<clipPath id="clip0_3_20">
<rect width="30" height="30" fill="white"/>
</clipPath>
</defs>
</svg>
