<svg width="50" height="50" fill="none" xmlns="http://www.w3.org/2000/svg"><path d="M25 40.833a2.777 2.777 0 0 0-2.773 2.774A2.777 2.777 0 0 0 25 46.381a2.777 2.777 0 0 0 2.774-2.774A2.777 2.777 0 0 0 25 40.833zm0 3.627a.854.854 0 0 1 0-1.706.854.854 0 0 1 0 1.706zM29.55 3.95h-4.922a1.014 1.014 0 1 0 0 2.028h4.922a1.014 1.014 0 1 0 0-2.028zM21.515 6.053a1.064 1.064 0 1 0 0-2.129 1.064 1.064 0 0 0 0 2.13z" fill="#4A4D4E"/><path d="M36.826 0H13.174a3.205 3.205 0 0 0-3.202 3.202v43.596A3.205 3.205 0 0 0 13.174 50h23.652a3.205 3.205 0 0 0 3.202-3.202V3.202A3.205 3.205 0 0 0 36.826 0zm1.067 46.798c0 .589-.479 1.068-1.067 1.068H13.174a1.068 1.068 0 0 1-1.068-1.068V3.202c0-.589.479-1.068 1.068-1.068h23.652c.588 0 1.067.48 1.067 1.068v43.596z" fill="#4A4D4E"/><path d="M26.799 20.04a1.068 1.068 0 0 0-1.51 0l-5.126 5.126a1.067 1.067 0 0 0 1.51 1.51l5.126-5.127a1.067 1.067 0 0 0 0-1.51zM29.837 23.01a1.068 1.068 0 0 0-1.51 0l-2.042 2.042a1.068 1.068 0 0 0 1.51 1.51l2.042-2.042a1.067 1.067 0 0 0 0-1.51z" fill="#4A4D4E"/><path d="M34.704 7.9H15.297a.96.96 0 0 0-.96.96v29.421c0 .53.43.96.96.96h19.407c.53 0 .96-.43.96-.96V8.86a.96.96 0 0 0-.96-.96zm-.96 29.42H16.256V9.82h17.486v27.5z" fill="#4A4D4E"/></svg>