<svg width="50" height="50" fill="none" xmlns="http://www.w3.org/2000/svg"><path d="M41.294 12.93H8.707c-.595 0-1.076.483-1.076 1.077v16.252a1.076 1.076 0 0 0 2.152 0V15.083h30.435v15.176a1.076 1.076 0 1 0 2.152 0V14.007c0-.594-.482-1.076-1.076-1.076z" fill="#4A4D4E"/><path d="M49.032 34.102H47.05V11.504a3.256 3.256 0 0 0-3.253-3.253H6.203a3.256 3.256 0 0 0-3.253 3.253v22.598H.968A.968.968 0 0 0 0 35.07v1.901a4.783 4.783 0 0 0 4.778 4.778h40.444A4.783 4.783 0 0 0 50 36.971v-1.9a.968.968 0 0 0-.968-.97zM5.102 11.504c0-.607.494-1.101 1.101-1.101h37.594c.607 0 1.1.494 1.1 1.1v22.599h-14.57a.968.968 0 0 0-.995.968c0 .817-.665 1.482-1.482 1.482h-5.7a1.484 1.484 0 0 1-1.482-1.482c0-.542-.45-.98-.99-.968H5.101V11.504zM48.063 36.97a2.844 2.844 0 0 1-2.84 2.841H4.777a2.844 2.844 0 0 1-2.841-2.84v-.933H18.87a3.426 3.426 0 0 0 3.28 2.45h5.699a3.426 3.426 0 0 0 3.28-2.45h16.933v.932z" fill="#4A4D4E"/><path d="M26.595 19.186a1.076 1.076 0 0 0-1.522 0l-6.767 6.767a1.076 1.076 0 0 0 1.521 1.522l6.768-6.768c.42-.42.42-1.101 0-1.521zM30.606 23.107a1.076 1.076 0 0 0-1.521 0l-2.696 2.696a1.076 1.076 0 0 0 1.521 1.522l2.696-2.696c.42-.42.42-1.101 0-1.522z" fill="#4A4D4E"/></svg>