<svg width="50" height="50" fill="none" xmlns="http://www.w3.org/2000/svg"><path d="M46.815 8.704H3.185A3.188 3.188 0 0 0 0 11.89V38.11a3.188 3.188 0 0 0 3.185 3.185h43.63A3.188 3.188 0 0 0 50 38.111V11.89a3.188 3.188 0 0 0-3.185-3.185zm1.062 29.407c0 .585-.476 1.062-1.062 1.062H3.185a1.063 1.063 0 0 1-1.062-1.062V11.89c0-.585.476-1.062 1.062-1.062h43.63c.586 0 1.062.476 1.062 1.062V38.11z" fill="#4A4D4E"/><path d="M41.221 18.018H29.828a1.062 1.062 0 1 0 0 2.123h11.393a1.062 1.062 0 1 0 0-2.123zM41.221 23.939H29.828a1.062 1.062 0 1 0 0 2.123h11.393a1.062 1.062 0 0 0 0-2.123zM41.221 29.859H29.828a1.062 1.062 0 0 0 0 2.123h11.393a1.062 1.062 0 0 0 0-2.123zM19.604 28.344c-.021-.001-1.964.08-2.49-2.022.71-.559 1.305-1.334 1.73-2.26.032.003.063.007.094.007.29 0 .57-.132.754-.369.892-1.145 1.355-2.631 1.306-4.186-.103-3.223-2.346-5.764-5.109-5.794a2.53 2.53 0 0 0-.197.001h-.004a4.847 4.847 0 0 0-2.105-.403c-1.555.05-2.983.82-4.019 2.17-.993 1.294-1.508 2.977-1.452 4.74.01.298.033.573.071.833.103.751.31 1.47.615 2.139a.955.955 0 0 0 1.093.53c.432 1.072 1.085 1.964 1.876 2.587-.515 2.098-2.47 2.026-2.49 2.027a3.9 3.9 0 0 0-3.768 3.893v3.868c0 .528.428.956.956.956h15.95a.955.955 0 0 0 .956-.956v-3.868a3.9 3.9 0 0 0-3.767-3.893zm-9.516-7.462a5.579 5.579 0 0 1-.066-.715c-.042-1.323.334-2.571 1.058-3.515.681-.887 1.592-1.393 2.565-1.424.032-.001.796-.062 1.438.318.134.08.299.103.454.1.02-.001.306-.016.32-.015 1.713.01 3.162 1.78 3.231 3.944.008.248-.002.492-.029.732-.632-1.085-1.572-1.926-2.69-2.396a.956.956 0 0 0-1.265.55 4.11 4.11 0 0 1-.267.577c-.25.45-.764.714-1.34.696a5.113 5.113 0 0 0-1.97.318 5.17 5.17 0 0 0-1.439.83zm1.332 1.386c.242-.178.508-.31.779-.427.493-.212 1.16-.2 1.233-.198 1.23.042 2.354-.534 2.98-1.515.487.374.89.877 1.17 1.473-.296 2.145-1.63 3.776-3.145 3.776-1.35 0-2.563-1.278-3.017-3.109zm2.1 4.912a3.994 3.994 0 0 0 1.842 0 4.396 4.396 0 0 0 1.802 2.368 2.904 2.904 0 0 1-2.724 1.908 2.904 2.904 0 0 1-2.723-1.908 4.395 4.395 0 0 0 1.802-2.368zm-6.1 7.97v-2.913c0-1.095.89-1.985 1.985-1.985.022 0 .37-.02.52-.04a4.82 4.82 0 0 0 4.515 3.155 4.82 4.82 0 0 0 4.515-3.155c.15.02.498.04.52.04 1.095 0 1.985.89 1.985 1.985v2.913H7.42z" fill="#4A4D4E"/></svg>