<svg width="50" height="50" fill="none" xmlns="http://www.w3.org/2000/svg"><g clip-path="url(#a)" fill="#4A4D4E"><path d="M36.356 4.957H2.816A2.819 2.819 0 0 0 0 7.772v20.123a2.819 2.819 0 0 0 2.816 2.816H4.99v7.49a1.18 1.18 0 0 0 2.014.835l8.325-8.326H17a1.18 1.18 0 1 0 0-2.358s-2.215.001-2.238.003a1.174 1.174 0 0 0-.754.342l-6.658 6.657s-.002-5.898-.005-5.928a1.18 1.18 0 0 0-1.175-1.074H2.816a.457.457 0 0 1-.457-.457V7.772c0-.252.205-.456.457-.456h33.54c.252 0 .457.205.457.456v7.72a1.18 1.18 0 0 0 2.359 0v-7.72a2.819 2.819 0 0 0-2.816-2.815z"/><path d="M47.185 19.384H23.707A2.819 2.819 0 0 0 20.89 22.2v13.727a2.819 2.819 0 0 0 2.816 2.816h14.698l5.955 5.955a1.18 1.18 0 0 0 2.014-.834v-5.121h.81A2.819 2.819 0 0 0 50 35.927V22.2a2.818 2.818 0 0 0-2.815-2.816zm.456 16.543a.457.457 0 0 1-.456.457h-1.99c-.62 0-1.128.48-1.175 1.088-.003.026-.005 3.544-.005 3.544l-4.283-4.283-.013-.013a1.174 1.174 0 0 0-.824-.337H23.707a.457.457 0 0 1-.457-.456V22.2c0-.252.205-.457.457-.457h23.478c.252 0 .456.205.456.457v13.727z"/><path d="M35.446 27.884a1.18 1.18 0 1 0 0 2.36 1.18 1.18 0 0 0 0-2.36zM30.32 12.755H8.851a1.18 1.18 0 0 0 0 2.359H30.32a1.18 1.18 0 1 0 0-2.36zM17 20.553H8.851a1.18 1.18 0 1 0 0 2.36H17a1.18 1.18 0 1 0 0-2.36zM29.965 27.884a1.18 1.18 0 1 0 0 2.36 1.18 1.18 0 0 0 0-2.36zM40.926 27.884a1.18 1.18 0 1 0 0 2.36 1.18 1.18 0 0 0 0-2.36z"/></g><defs><clipPath id="a"><path fill="#fff" d="M0 0h50v50H0z"/></clipPath></defs></svg>