<svg width="30" height="30" viewBox="0 0 30 30" fill="none" xmlns="http://www.w3.org/2000/svg">
<g clip-path="url(#clip0_3_18)">
<path d="M11.4152 27.405C6.40817 27.405 2.45081 26.5302 0.557497 25.0054L0.520647 24.9756L0.487231 24.9422C0.037478 24.4922 -0.109922 23.9019 0.0832543 23.3229L0.100878 23.2748C0.335253 22.6886 0.909518 22.294 1.53185 22.2904C2.81267 22.2682 3.93327 22.1155 4.9502 21.8191C3.32811 21.0647 2.20133 19.7585 1.53093 17.8679C1.30548 17.2783 1.50003 16.6246 2.01959 16.2348C2.14777 16.1385 2.29265 16.0657 2.446 16.017C1.54466 14.9765 0.878847 13.7925 0.505999 12.5402L0.494326 12.5013L0.486315 12.4615C0.359744 11.8282 0.64287 11.177 1.16175 10.8966C1.37941 10.7717 1.61585 10.7069 1.8532 10.7014C1.59731 10.1503 1.41123 9.58446 1.30091 9.01523C0.994662 7.43778 1.24735 5.85643 2.05164 4.31514L2.23772 3.94298C2.38672 3.64521 2.67145 3.43601 2.99967 3.38268C3.32788 3.32958 3.66434 3.43807 3.8994 3.67313L4.23837 4.01256C6.91629 6.82003 9.31497 8.15212 13.4621 9.06353C13.6472 7.47165 14.3355 5.99193 15.4458 4.82738C16.7671 3.44173 18.5316 2.66422 20.4141 2.63767H20.4265C21.8 2.63767 23.5038 3.42182 24.5342 3.9748C25.4182 3.68549 26.4832 3.23757 27.5882 2.76401C28.1053 2.5214 28.7427 2.6324 29.1492 3.0389C29.5477 3.43738 29.6582 3.99929 29.4467 4.5454C29.3664 4.76902 29.2753 4.98851 29.1739 5.2032C29.3252 5.27256 29.4637 5.36663 29.5806 5.48358C29.9342 5.83721 30.0816 6.39064 29.956 6.89373L29.9425 6.94156C29.5191 8.30616 28.7056 9.4176 27.6299 10.1152C27.4502 19.6827 20.2455 27.405 11.4152 27.405ZM2.24459 24.0255C4.02872 25.0349 7.42876 25.6456 11.4152 25.6456C15.2478 25.6456 18.8646 24.0001 21.5991 21.0123C24.3559 18 25.8741 13.9998 25.8741 9.74857V9.70073C25.8741 9.31575 26.0861 8.96442 26.4271 8.7836C27.119 8.41716 27.6793 7.793 28.0437 6.99489C27.6679 7.05417 27.2859 6.90334 27.0517 6.58886C26.7796 6.22333 26.7766 5.72963 27.0442 5.3609C27.1886 5.16178 27.3195 4.95464 27.4362 4.74041C26.482 5.14118 25.5759 5.50052 24.7892 5.73925C24.5033 5.82576 24.1847 5.79189 23.9236 5.64609C22.5231 4.86583 21.2187 4.39937 20.4322 4.39708C17.5302 4.44149 15.1707 6.92691 15.1707 9.94037C15.1707 10.2519 15.0324 10.5439 14.7919 10.7419C14.5511 10.9397 14.238 11.0189 13.9322 10.9584C9.15041 10.0164 6.31685 8.6037 3.37023 5.64266C2.94794 6.65454 2.83258 7.67375 3.02782 8.68015C3.2258 9.69959 3.75246 10.7211 4.55103 11.6341C4.85452 11.9806 4.89481 12.4764 4.65128 12.8675C4.40866 13.2573 3.94747 13.4395 3.50412 13.3207C3.15759 13.2278 2.83899 13.1058 2.53687 12.949C3.15233 14.2859 4.21091 15.5223 5.54163 16.4342C5.92729 16.6986 6.08843 17.1913 5.9337 17.6326C5.77875 18.0746 5.34593 18.3591 4.8781 18.3243C4.36838 18.2865 3.9168 18.1897 3.50115 18.0265C4.2473 19.5461 5.43955 20.3822 7.27632 20.7017C7.71372 20.7779 8.05429 21.1233 8.12387 21.5612C8.19368 21.999 7.97693 22.433 7.58486 22.641C6.0193 23.4709 4.30818 23.9164 2.24459 24.0255Z" fill="white"/>
</g>
<defs>
<clipPath id="clip0_3_18">
<rect width="30" height="30" fill="white"/>
</clipPath>
</defs>
</svg>
