<svg width="30" height="30" viewBox="0 0 30 30" fill="none" xmlns="http://www.w3.org/2000/svg">
<g clip-path="url(#clip0_3_26)">
<path d="M19.6176 13.652L12.9899 10.0256C12.6088 9.81707 12.1583 9.82485 11.7848 10.0462C11.411 10.2677 11.1881 10.6591 11.1881 11.0935V18.2841C11.1881 18.7164 11.4097 19.1071 11.7809 19.3289C11.9748 19.4447 12.1897 19.5028 12.4051 19.5028C12.6024 19.5028 12.8001 19.4541 12.9821 19.3561L19.61 15.7922C20.0035 15.5805 20.249 15.1715 20.2509 14.7245C20.2525 14.2775 20.0099 13.8667 19.6176 13.652ZM12.9461 17.3795V12.0054L17.8996 14.7158L12.9461 17.3795Z" fill="white"/>
<path d="M29.7792 8.99572L29.7779 8.98199C29.7525 8.74052 29.4995 6.5927 28.4554 5.50025C27.2485 4.21531 25.8803 4.05922 25.2222 3.98437C25.1677 3.97819 25.1179 3.97247 25.0732 3.96652L25.0208 3.96103C21.0548 3.67264 15.0652 3.63327 15.0052 3.63304L14.9999 3.63281L14.9947 3.63304C14.9347 3.63327 8.94512 3.67264 4.94337 3.96103L4.8905 3.96652C4.84793 3.97224 4.80101 3.97751 4.74997 3.98346C4.09949 4.05853 2.74588 4.21486 1.53556 5.54626C0.541075 6.62703 0.2536 8.72885 0.224074 8.96505L0.220641 8.99572C0.211715 9.0962 0 11.4882 0 13.8897V16.1345C0 18.5359 0.211715 20.928 0.220641 21.0287L0.222243 21.0438C0.247649 21.2814 0.500334 23.3898 1.53968 24.4827C2.67447 25.7246 4.10933 25.889 4.88111 25.9773C5.00311 25.9913 5.10816 26.0032 5.1798 26.0158L5.24916 26.0254C7.53911 26.2433 14.7189 26.3506 15.0233 26.355L15.0324 26.3552L15.0416 26.355C15.1016 26.3547 21.0909 26.3154 25.057 26.027L25.1094 26.0215C25.1595 26.0148 25.2158 26.0089 25.2776 26.0025C25.9244 25.9338 27.2707 25.7912 28.4643 24.4779C29.4588 23.3969 29.7465 21.2951 29.7758 21.0591L29.7792 21.0284C29.7882 20.9277 30.0001 18.5359 30.0001 16.1345V13.8897C29.9999 11.4882 29.7882 9.09643 29.7792 8.99572ZM28.2418 16.1345C28.2418 18.3572 28.0478 20.6462 28.0294 20.8563C27.9548 21.4352 27.6516 22.765 27.167 23.2916C26.42 24.1135 25.6525 24.195 25.0922 24.2543C25.0245 24.2614 24.9618 24.2683 24.905 24.2754C21.0689 24.5528 15.3055 24.5953 15.04 24.5969C14.7422 24.5926 7.66751 24.4843 5.44737 24.2781C5.33361 24.2596 5.2107 24.2454 5.08116 24.2307C4.42404 24.1554 3.52454 24.0524 2.83286 23.2916L2.81661 23.2742C2.34054 22.7782 2.04597 21.5347 1.97112 20.8632C1.95716 20.7044 1.75803 18.3883 1.75803 16.1345V13.8897C1.75803 11.6695 1.95167 9.38299 1.97044 9.16853C2.05947 8.48669 2.36846 7.23746 2.83286 6.73255C3.60281 5.88569 4.41466 5.79185 4.95161 5.72982C5.00288 5.72387 5.05072 5.71838 5.09489 5.71265C8.98678 5.43388 14.7917 5.39245 14.9999 5.39085C15.2082 5.39222 21.011 5.43388 24.8684 5.71265C24.9158 5.7186 24.9675 5.72456 25.0231 5.73096C25.5754 5.79391 26.4101 5.88912 27.1762 6.70623L27.1833 6.71378C27.6593 7.20976 27.9539 8.47502 28.0288 9.16006C28.042 9.30997 28.2418 11.6311 28.2418 13.8897V16.1345Z" fill="white"/>
</g>
<defs>
<clipPath id="clip0_3_26">
<rect width="30" height="29.9999" fill="white"/>
</clipPath>
</defs>
</svg>
